# xmcd
#
# Track frame offsets:
#	150
#	1477
#	13162
#	23025
#	32962
#	44887
#	59175
#	65700
#	76740
#	82950
#	93637
#	100125
#	112762
#	125025
#	129075
#	138750
#	147825
#	158137
#	161962
#	175912
#
# Disc length: 2437 seconds
# Revision: 2
# Processed by: cddbd v1.5.2PL0 Copyright (c) Steve Scherf et al.
# Submitted via: dBpowerAMP V12.0
#
DISCID=12098314
DTITLE=Red Cravens and the Bray Brothers - 419 West Main
DYEAR=1972
DGENRE=Country
TTITLE0=Whow Introduction
TTITLE1=This Train
TTITLE2=Glory in the Meeting House
TTITLE3=Bluegrass Breakdown
TTITLE4=Cora Is Gone
TTITLE5=East Virginia Blues
TTITLE6=Jingle Bell Breakdown
TTITLE7=Blue Eyed Darking
TTITLE8=Little Darling Pal of Mine
TTITLE9=Pass Me By
TTITLE10=Cumberland Gap
TTITLE11=I Never Shall Marry
TTITLE12=Lost Love
TTITLE13=Sally Goodin
TTITLE14=Gentle Blues
TTITLE15=Rawhide
TTITLE16=Angel With the Golden Hair
TTITLE17=Buckin' Mule
TTITLE18=Our Darling's Gone
TTITLE19=Hazel Dell
EXTD=
EXTT0=
EXTT1=
EXTT2=
EXTT3=
EXTT4=
EXTT5=
EXTT6=
EXTT7=
EXTT8=
EXTT9=
EXTT10=
EXTT11=
EXTT12=
EXTT13=
EXTT14=
EXTT15=
EXTT16=
EXTT17=
EXTT18=
EXTT19=
PLAYORDER=
